<svg xmlns="http://www.w3.org/2000/svg" viewBox="0 0 900 520"><defs><linearGradient id="bgc" x1="0" x2="1" y1="0" y2="1"><stop stop-color="#ece4d5"/><stop offset="1" stop-color="#cfe0d6"/></linearGradient></defs><rect width="900" height="520" fill="url(#bgc)"/><rect x="180" y="65" width="540" height="275" rx="20" fill="#173d34"/><path d="M225 110h450M225 160h350M225 210h380" stroke="#f6f1e7" stroke-width="12" stroke-linecap="round" opacity=".75"/><g fill="#fffdf8"><circle cx="140" cy="400" r="42"/><circle cx="285" cy="400" r="42"/><circle cx="430" cy="400" r="42"/><circle cx="575" cy="400" r="42"/><circle cx="720" cy="400" r="42"/></g><g fill="#8f3f2a"><path d="M90 495c8-60 44-90 50-90s42 30 50 90M235 495c8-60 44-90 50-90s42 30 50 90M380 495c8-60 44-90 50-90s42 30 50 90M525 495c8-60 44-90 50-90s42 30 50 90M670 495c8-60 44-90 50-90s42 30 50 90"/></g></svg>